<?xml version="1.0" encoding="utf-8"?>
<!-- Generator: Adobe Illustrator 24.1.3, SVG Export Plug-In . SVG Version: 6.00 Build 0)  -->
<svg version="1.1" id="Capa_1" xmlns="http://www.w3.org/2000/svg" xmlns:xlink="http://www.w3.org/1999/xlink" x="0px" y="0px"
	 viewBox="0 0 612 792" style="enable-background:new 0 0 612 792;" xml:space="preserve">
<style type="text/css">
	.st0{fill:#FFD700;}
</style>
<g>
	<path class="st0" d="M242.3,462.4c-2.5,1.7-2.6,4.2-2.5,6.9c0,0.5,0,0.9,0,1.4c0.1,0.7-0.2,0.9-0.9,0.9c-3.7,0-7.4,0-11,0
		c-0.4,0-0.7,0-0.8-0.5c-1-4.4-5.8-6.2-9.4-5.9c-4,0.3-6.8,2.4-7.8,5.8c-0.4,1.4-0.3,2.8-0.4,4.2c-0.1,2.8,0,5.5,0,8.3
		c0,0.6-0.1,0.8-0.8,0.8c-3.6,0-7.1,0-10.7,0c-0.7,0-0.9-0.2-0.9-0.8c0-3.3,0-6.7,0-10c0-5.9-4.4-8-8.3-8.4c-3.6-0.4-8.4,1.9-9.4,6
		c-0.1,0.4-0.3,0.4-0.6,0.4c-3.9,0-7.7,0-11.6,0c-0.4,0-0.5-0.2-0.5-0.6c0-1.4,0-2.7,0-4.1c0-1.6-0.6-2.9-1.9-4
		c-0.1-0.1-0.4-0.2-0.4-0.4c0.1-0.3,0.4-0.3,0.6-0.3c0.8,0,1.7-0.1,2.5-0.1c3.8,0,7.6,0,11.4,0c1.8,0,2.9-1.1,2.9-2.8
		c0-4.8,0.1-9.5-0.1-14.3c-0.1-1.4-0.7-2.5-1.7-3.5c-0.6-0.6-0.9-1.2-0.8-2c0.1-1,0-2.1,0-3.2c0-0.5,0.1-0.6,0.6-0.6
		c1.6,0,3.1,0,4.7,0c0.6,0,0.7,0.2,0.6,0.7c0,0.4,0,0.8,0,1.2c0,1.6,0.9,2.7,2.5,2.9c1,0.1,2.1,0.2,3.1,0c1.5-0.2,2.3-1.2,2.4-2.8
		c0.1-0.6-0.1-1.6,0.2-1.9c0.5-0.4,1.4-0.1,2.1-0.1c1.1,0,2.2,0,3.3,0c0.4,0,0.5,0.1,0.5,0.5c0,0.6,0,1.3,0.1,1.9
		c0.2,1.4,1.1,2.3,2.5,2.5c1,0.2,2,0,3-0.2c1.4-0.3,2.1-1.2,2.3-2.6c0-0.1,0-0.2,0-0.3c0-2,0-2,2.1-1.9c1.1,0.1,2.1,0.1,3.2,0
		c0.5,0,0.7,0.1,0.7,0.7c0,0.7-0.1,1.4,0.1,2c0.2,1,0.8,1.7,1.8,1.9c1.3,0.3,2.6,0.3,3.9,0.1c1.4-0.2,2.2-1.3,2.2-2.6
		c0-0.7-0.3-1.6,0.2-1.9c0.4-0.3,1.3-0.1,2-0.1c1.1,0,2.2,0,3.3,0c0.3,0,0.5,0,0.5,0.4c0,1.3,0,2.6,0,3.9c0,0.5-0.2,0.8-0.5,1.1
		c-1.5,1.2-2,2.8-2,4.7c0,4.2,0,8.4,0,12.7c0,2.5,1.1,3.6,3.6,3.6c4.3,0,8.6,0,12.8,0C241.4,462.1,241.9,462.1,242.3,462.4z
		 M203.2,462.1C203.2,462.1,203.2,462.1,203.2,462.1c1.7,0,3.5,0,5.2,0c0.1,0,0.1,0,0.2,0c2.6,0.1,3.7-1,3.7-3.6
		c-0.1-2.1-0.1-4.1,0-6.2c0.1-2-0.4-3.9-1.7-5.5c-2.1-2.7-6.4-4-9.9-3c-3.9,1.1-6.3,4.1-6.3,8c0,2.4,0,4.8,0,7.3c0,1.9,1.2,3,3.1,3
		C199.4,462.1,201.3,462.1,203.2,462.1z"/>
	<path class="st0" d="M194.7,510.3c2.5-1.6,2.5-4,2.5-6.4c-0.1-3,0-6-0.1-9.1c0-0.4,0.1-0.6,0.6-0.6c3.8,0,7.5,0,11.3,0
		c0.4,0,0.6,0.1,0.6,0.6c0,3.7-0.1,7.4,0,11.1c0,1.7,0.6,3,2,4c0.2,0.1,0.5,0.2,0.4,0.5c-0.1,0.3-0.4,0.2-0.7,0.2
		c-1.9,0-3.8,0-5.7,0c-3,0-6.1,0-9.1,0C195.8,510.7,195.3,510.8,194.7,510.3z"/>
	<path class="st0" d="M188.5,418.6c1.7,0.7,3.3,1.4,5,2c0.3,0.1,0.3,0.3,0.3,0.6c-0.1,1.6,0.7,2.9,2.1,3.5c1.3,0.6,2.8,0.2,3.8-0.8
		c1-1.1,1.3-2.5,0.5-3.9c-0.2-0.4-0.2-0.6,0.1-0.9c1-1.5,2-3,3.1-4.6c0.4,0.5,0.7,1,1,1.5c0.6,0.9,1.2,1.8,1.8,2.6
		c0.4,0.6,0.6,1,0.2,1.8c-0.6,1.2-0.2,2.7,0.8,3.7c1.1,1,2.3,1.2,3.6,0.7c1.3-0.5,2.2-1.9,2.1-3.2c0-0.6,0.2-0.8,0.7-1
		c1.5-0.6,3-1.2,4.4-1.8c0,0,0.1,0,0.2,0c-0.6,1-1.1,1.9-1.7,2.9c-1.1,2-2.3,3.9-3.4,5.9c-0.3,0.5-0.6,0.7-1.1,0.7
		c-5.8,0-11.7,0-17.5,0c-0.3,0-0.7,0.1-0.9-0.3c-1.7-3-3.5-6.1-5.3-9.1C188.4,418.7,188.5,418.7,188.5,418.6z"/>
	<path class="st0" d="M197.1,423.8c-0.4,0-0.8-0.1-1.2-0.4c-0.4-0.3-0.8-0.6-0.2-1.2c0.6-0.7,0.3-1.6-0.5-2
		c-0.5-0.2-0.5-0.4-0.3-0.8c0.3-0.8,0.5-1.5,0.7-2.3c0.1-0.5,0.3-0.5,0.7-0.2c0.4,0.4,0.9,0.8,1.3,1.2c0.5,0.4,1.2,0.7,0.5,1.7
		c-0.4,0.6,0,1.4,0.8,1.7c0.5,0.2,0.5,0.5,0.4,0.9C198.9,423.3,198.1,423.9,197.1,423.8z"/>
	<path class="st0" d="M210.9,416.6c0.4,1.1,0.7,2,1,3c0.1,0.4,0,0.5-0.3,0.6c-1,0.5-1.1,1.3-0.4,2.2c0.3,0.3,0.2,0.5,0,0.8
		c-0.6,0.6-1.3,0.8-2.1,0.6c-0.7-0.2-1.2-0.7-1.4-1.4c-0.1-0.4-0.1-0.6,0.4-0.8c1-0.4,1.2-1.2,0.6-2.2c-0.1-0.2-0.2-0.4,0-0.6
		C209.3,418.1,210,417.4,210.9,416.6z"/>
</g>
</svg>
